<?xml version="1.0" standalone="no"?><!DOCTYPE svg PUBLIC "-//W3C//DTD SVG 1.1//EN" "http://www.w3.org/Graphics/SVG/1.1/DTD/svg11.dtd" [<!ENTITY nbsp " ">]><svg data-noselect="" viewBox="-29.13457040957276 37.40058366022393 609.9877239035228 457.49079292764213" width="609.9877239035228" ref="svg_canvas" height="457.49079292764213" preserveAspectRatio="none" version="1.1" xmlns="http://www.w3.org/2000/svg" style="background: #FFFFFF;">
    <def></def>
    <g id="shape_JZfIU9uh3q" ref="shape_JZfIU9uh3q" key="shape_JZfIU9uh3q" transform="translate(50.86542959042724,173.27816772460997) rotate(0,92.867812399435,92.867812399435) scale(1,1)" style="cursor:move;display:inline;opacity:1;" filter="">
            <g style="display:inline"><rect fill="rgba(0,0,0,0)" width="205.7345115280455" height="205.73562479887" x="-10" y="-10"></rect><svg version="1.1" id="图层_1" xmlns="http://www.w3.org/2000/svg" xmlns:xlink="http://www.w3.org/1999/xlink" x="0px" y="0px" style="enable-background:new 0 0 283.46 283.46;" xml:space="preserve" viewBox="58.36899948120117 57.67900085449219 168.0179901123047 168.0189971923828" width="185.7345115280455" height="185.73562479887" preserveAspectRatio="none" data-parent="shape_JZfIU9uh3q">
<g>
	<polygon style="" points="152.976,57.679 105.672,104.983 58.369,57.679 	" fill="#247881"></polygon>
	<polygon style="" points="182.555,181.865 138.722,225.698 58.369,225.698 142.378,141.688 	" fill="#84CECE"></polygon>
	<polygon style="" points="226.387,225.698 138.722,225.698 182.555,181.865 	" fill="#247881"></polygon>
	<polygon style="" points="226.387,57.679 142.378,141.688 105.672,104.983 152.976,57.679 	" fill="#84CECE"></polygon>
	<g>
		<g>
			<ellipse style="" cx="142.156" cy="147.757" rx="50.581" ry="41.582" fill="#FFFFFF"></ellipse>
			<circle style="" cx="142.156" cy="147.757" r="7.343" fill="#247881"></circle>
			<circle style="" cx="113.922" cy="147.757" r="7.343" fill="#247881"></circle>
			<circle style="" cx="170.391" cy="147.757" r="7.343" fill="#247881"></circle>
			<polygon style="" points="191.524,189.339 166.964,180.03 185.735,165.259 			" fill="#FFFFFF"></polygon>
		</g>
	</g>
</g>
</svg></g>
        </g><g id="shape_I14yRV7qIA" ref="shape_I14yRV7qIA" key="shape_I14yRV7qIA" transform="translate(225.10316875289,218.13084340529002) rotate(0,260.10884113021,109.01513671875) scale(1,1)" style="cursor:move;display:inline;opacity:1;" filter="">
            <g style="display:inline"><svg xmlns="http://www.w3.org/2000/svg" version="1.1" xmlns:xlink="http://www.w3.org/1999/xlink" width="333" height="218.0302734375" viewBox="0 0 333 218.0302734375" preserveAspectRatio="none" data-parent="shape_I14yRV7qIA"><rect fill="rgba(0,0,0,0)" width="210" height="30" x="30.75" y="94.01513671875"></rect><g data-width="209.71271777343748" transform="translate(30.75, 0)"><path d="M11.08-22.69L3.80-22.69L3.80-15.80L11.08-15.80Q12.51-15.80 13.51-16.80L13.51-16.80Q14.52-17.81 14.52-19.23L14.52-19.23Q14.52-20.68 13.51-21.68L13.51-21.68Q12.51-22.69 11.08-22.69L11.08-22.69ZM11.85-13.50L3.80-13.50L3.80-5.84L11.85-5.84Q13.42-5.84 14.55-6.95L14.55-6.95Q15.68-8.08 15.68-9.67L15.68-9.67Q15.68-11.25 14.55-12.37L14.55-12.37Q13.42-13.50 11.85-13.50L11.85-13.50ZM11.85-3.54L1.50-3.54L1.50-24.98L11.08-24.98Q13.45-24.98 15.13-23.30L15.13-23.30Q16.82-21.62 16.82-19.23L16.82-19.23Q16.82-16.86 15.13-15.18L15.13-15.18Q15.03-15.07 14.92-14.98L14.92-14.98Q15.59-14.58 16.17-13.99L16.17-13.99Q17.97-12.21 17.97-9.67L17.97-9.67Q17.97-7.13 16.17-5.33L16.17-5.33Q14.38-3.54 11.85-3.54L11.85-3.54Z" transform="translate(0 118.01513671875) " fill="rgb(49, 49, 49)" stroke="rgb(49, 49, 49)" stroke-width="0.051" data-glyph-w="18.8734130859375" data-glyph-h="32.041259765625" data-glyph-ascender="25.76513671875" data-glyph-descender="-6.276123046875"></path><path d="M3.80-24.98L3.80-5.84L14.52-5.84L14.52-3.54L1.50-3.54L1.50-24.98L3.80-24.98Z" transform="translate(18.8734130859375 118.01513671875) " fill="rgb(49, 49, 49)" stroke="rgb(49, 49, 49)" stroke-width="0.051" data-glyph-w="15.4200439453125" data-glyph-h="32.041259765625" data-glyph-ascender="25.76513671875" data-glyph-descender="-6.276123046875"></path><path d="M12.01-25.37Q16.61-25.37 19.86-22.12L19.86-22.12Q23.11-18.86 23.11-14.26L23.11-14.26Q23.11-9.65 19.86-6.41L19.86-6.41Q16.61-3.15 12.01-3.15L12.01-3.15Q7.40-3.15 4.16-6.41L4.16-6.41Q0.90-9.65 0.90-14.26L0.90-14.26Q0.90-18.86 4.16-22.12L4.16-22.12Q7.40-25.37 12.01-25.37L12.01-25.37ZM12.01-23.06L12.01-23.06Q8.36-23.06 5.78-20.49L5.78-20.49Q3.20-17.91 3.20-14.26L3.20-14.26Q3.20-10.62 5.78-8.03L5.78-8.03Q8.36-5.45 12.01-5.45L12.01-5.45Q15.66-5.45 18.24-8.03L18.24-8.03Q20.81-10.62 20.81-14.26L20.81-14.26Q20.81-17.91 18.24-20.49L18.24-20.49Q15.66-23.06 12.01-23.06Z" transform="translate(34.29345703125 118.01513671875) " fill="rgb(49, 49, 49)" stroke="rgb(49, 49, 49)" stroke-width="0.051" data-glyph-w="24.0084228515625" data-glyph-h="32.041259765625" data-glyph-ascender="25.76513671875" data-glyph-descender="-6.276123046875"></path><path d="M23.05-15.41L11.23-15.41L11.23-13.11L20.74-13.11Q20.39-10.19 18.23-8.03L18.23-8.03Q15.65-5.45 12.00-5.45L12.00-5.45Q8.35-5.45 5.77-8.03L5.77-8.03Q3.20-10.62 3.20-14.26L3.20-14.26Q3.20-17.91 5.77-20.49L5.77-20.49Q8.35-23.06 12.00-23.06L12.00-23.06Q16.11-23.06 18.75-19.92L18.75-19.92L20.51-21.40Q17.18-25.37 12.00-25.37L12.00-25.37Q7.40-25.37 4.14-22.12L4.14-22.12Q0.90-18.86 0.90-14.26L0.90-14.26Q0.90-9.65 4.14-6.41L4.14-6.41Q7.40-3.15 12.00-3.15L12.00-3.15Q16.61-3.15 19.85-6.41L19.85-6.41Q23.11-9.65 23.11-14.26L23.11-14.26Q23.11-14.83 23.05-15.41L23.05-15.41Z" transform="translate(58.3018798828125 118.01513671875) " fill="rgb(49, 49, 49)" stroke="rgb(49, 49, 49)" stroke-width="0.051" data-glyph-w="24.0084228515625" data-glyph-h="32.041259765625" data-glyph-ascender="25.76513671875" data-glyph-descender="-6.276123046875"></path><path d="" transform="translate(82.310302734375 118.01513671875) " fill="rgb(49, 49, 49)" stroke="rgb(49, 49, 49)" stroke-width="0.051" data-glyph-w="12.2385" data-glyph-h="30.75" data-glyph-ascender="27.06" data-glyph-descender="-3.69"></path><path d="M12.01-25.37Q16.61-25.37 19.86-22.12L19.86-22.12Q23.11-18.86 23.11-14.26L23.11-14.26Q23.11-9.65 19.86-6.41L19.86-6.41Q16.61-3.15 12.01-3.15L12.01-3.15Q7.40-3.15 4.16-6.41L4.16-6.41Q0.90-9.65 0.90-14.26L0.90-14.26Q0.90-18.86 4.16-22.12L4.16-22.12Q7.40-25.37 12.01-25.37L12.01-25.37ZM12.01-23.06L12.01-23.06Q8.36-23.06 5.78-20.49L5.78-20.49Q3.20-17.91 3.20-14.26L3.20-14.26Q3.20-10.62 5.78-8.03L5.78-8.03Q8.36-5.45 12.01-5.45L12.01-5.45Q15.66-5.45 18.24-8.03L18.24-8.03Q20.81-10.62 20.81-14.26L20.81-14.26Q20.81-17.91 18.24-20.49L18.24-20.49Q15.66-23.06 12.01-23.06Z" transform="translate(94.548802734375 118.01513671875) " fill="rgb(49, 49, 49)" stroke="rgb(49, 49, 49)" stroke-width="0.051" data-glyph-w="24.0084228515625" data-glyph-h="32.041259765625" data-glyph-ascender="25.76513671875" data-glyph-descender="-6.276123046875"></path><path d="M3.80-22.69L3.80-15.41L15.28-15.41L15.28-13.11L3.80-13.11L3.80-3.54L1.50-3.54L1.50-24.98L15.28-24.98L15.28-22.69L3.80-22.69Z" transform="translate(118.5572255859375 118.01513671875) " fill="rgb(49, 49, 49)" stroke="rgb(49, 49, 49)" stroke-width="0.051" data-glyph-w="16.185791015625" data-glyph-h="32.041259765625" data-glyph-ascender="25.76513671875" data-glyph-descender="-6.276123046875"></path><path d="" transform="translate(134.7430166015625 118.01513671875) " fill="rgb(49, 49, 49)" stroke="rgb(49, 49, 49)" stroke-width="0.051" data-glyph-w="12.2385" data-glyph-h="30.75" data-glyph-ascender="27.06" data-glyph-descender="-3.69"></path><path d="M9.53-14.68L0.30-3.54L3.29-3.54L11.04-12.88L18.77-3.54L21.74-3.54L12.52-14.67L21.07-24.98L18.08-24.98L11.02-16.47L3.96-24.98L0.99-24.98L9.53-14.68Z" transform="translate(146.98151660156248 118.01513671875) " fill="rgb(49, 49, 49)" stroke="rgb(49, 49, 49)" stroke-width="0.051" data-glyph-w="22.04150390625" data-glyph-h="32.041259765625" data-glyph-ascender="25.76513671875" data-glyph-descender="-6.276123046875"></path><path d="M9.88-12.72L9.88-3.54L12.18-3.54L12.18-12.75L21.74-24.98L18.83-24.98L11.02-14.98L3.21-24.98L0.30-24.98L9.88-12.72Z" transform="translate(169.02302050781248 118.01513671875) " fill="rgb(49, 49, 49)" stroke="rgb(49, 49, 49)" stroke-width="0.051" data-glyph-w="22.04150390625" data-glyph-h="32.041259765625" data-glyph-ascender="25.76513671875" data-glyph-descender="-6.276123046875"></path><path d="M1.47-22.69L1.47-24.98L17.18-24.98L17.18-22.84L3.90-5.84L17.75-5.84L17.75-3.54L0.90-3.54L0.90-5.72L14.14-22.69L1.47-22.69Z" transform="translate(191.06452441406248 118.01513671875) " fill="rgb(49, 49, 49)" stroke="rgb(49, 49, 49)" stroke-width="0.051" data-glyph-w="18.648193359375" data-glyph-h="32.041259765625" data-glyph-ascender="25.76513671875" data-glyph-descender="-6.276123046875"></path></g></svg></g>
        </g><g id="shape_RwMyvYnIc6" ref="shape_RwMyvYnIc6" key="shape_RwMyvYnIc6" transform="translate(155.93315349395,-92.52957987596002) rotate(0,360.65837299071,339.67556) scale(1,1)" style="cursor:move;display:inline;opacity:1;" filter="">
            <g style="display:inline"><svg xmlns="http://www.w3.org/2000/svg" version="1.1" xmlns:xlink="http://www.w3.org/1999/xlink" width="623.6800000000001" height="679.35112" viewBox="0 0 623.6800000000001 679.35112" preserveAspectRatio="none" data-parent="shape_RwMyvYnIc6"><rect fill="rgba(0,0,0,0)" width="252" height="92" x="92.92" y="293.67556"></rect><g data-width="251.06984000000003" transform="translate(92.92, 0)"></g><g data-width="251.06984000000003" transform="translate(92.92, 0)"><path d="M1.58-0.46L1.58-0.46Q4.18-3.53 9.29-10.64Q14.40-17.75 18.49-24.21Q22.58-30.66 22.86-32.52L22.86-32.52Q22.21-32.99 20.49-35.50Q18.77-38.00 17.42-40.14Q16.08-42.28 15.42-43.30L15.42-43.30Q8.08-54.82 3.16-61.70L3.16-61.70Q3.53-61.79 6.97-62.30Q10.41-62.81 12.92-62.54L12.92-62.54Q14.40-61.61 20.12-53.71Q25.83-45.81 28.25-41.81L28.25-41.81Q29.55-42.84 32.71-47.53Q35.87-52.22 38.42-56.96Q40.98-61.70 40.98-62.91L40.98-62.91Q41.63-63.19 43.39-63.19L43.39-63.19Q46.09-63.19 49.48-62.49Q52.87-61.79 54.08-60.77L54.08-60.77Q53.52-59.65 47.67-50.73L47.67-50.73Q42.09-42.28 38.89-37.17Q35.68-32.06 35.22-30.29L35.22-30.29Q35.87-29.64 40.88-23.79L40.88-23.79Q50.64-12.45 57.05-5.39L57.05-5.39Q56.31-4.18 53.10-2.60Q49.90-1.02 47.95-1.02L47.95-1.02Q47.58-1.02 47.02-1.21L47.02-1.21Q43.49-4.92 37.91-11.15Q32.34-17.38 29.83-20.63L29.83-20.63Q29.18-19.79 28.06-18.12L28.06-18.12Q23.69-12.08 20.81-8.97Q17.93-5.85 13.38-3.62Q8.83-1.39 1.58-0.46L1.58-0.46ZM17.93-46.46L17.93-46.46Q17.84-46.74 17.75-46.88Q17.65-47.02 17.38-47.20L17.38-47.20Q17.56-46.74 17.93-46.46L17.93-46.46ZM20.91-40.51L20.91-40.51Q21.19-39.86 21.70-39.12Q22.21-38.38 22.49-38.00L22.49-38.00Q23.42-37.08 23.79-36.24L23.79-36.24L24.07-36.24L24.07-36.80Q23.42-37.26 22.49-38.56L22.49-38.56Q21.56-40.05 20.91-40.51L20.91-40.51ZM42.84-14.12L42.84-14.12Q42.74-14.31 42.56-14.31L42.56-14.31Q42.37-14.31 41.91-14.12Q41.44-13.94 40.98-14.22L40.98-14.22Q41.16-13.75 41.35-13.75L41.35-13.75Q41.54-13.75 42.05-13.98Q42.56-14.22 42.84-14.12L42.84-14.12Z" transform="translate(0 375.67556) " fill="rgb(49, 49, 49)" stroke="rgb(49, 49, 49)" stroke-width="0.155" data-glyph-w="57.6104" data-glyph-h="121.63228000000001" data-glyph-ascender="96.91556" data-glyph-descender="-24.716720000000002"></path><path d="M38.93-31.78L38.93-31.78Q39.58-31.04 39.58-30.01L39.58-30.01Q39.58-29.36 39.35-28.11Q39.12-26.85 39.31-25.74L39.31-25.74Q36.89-24.62 32.34-24.62L32.34-24.62Q29.73-24.62 28.34-24.72L28.34-24.72L23.32-24.81Q17.38-24.81 13.85-25.00L13.85-25.00Q12.92-25.00 11.10-25.04Q9.29-25.09 5.20-25.09L5.20-25.09Q4.92-25.37 4.83-27.27Q4.74-29.18 4.74-29.73L4.74-29.73Q4.74-32.06 4.65-32.24L4.65-32.24Q6.60-31.41 16.35-31.41L16.35-31.41Q22.39-31.41 32.15-31.69L32.15-31.69L38.93-31.78Z" transform="translate(57.6104 375.67556) " fill="rgb(49, 49, 49)" stroke="rgb(49, 49, 49)" stroke-width="0.155" data-glyph-w="42.371520000000004" data-glyph-h="121.63228000000001" data-glyph-ascender="96.91556" data-glyph-descender="-24.716720000000002"></path><path d="M-0.37-62.07L-0.37-62.07Q6.32-63.93 8.83-63.93L8.83-63.93Q9.48-63.93 9.85-63.74L9.85-63.74Q11.15-62.35 12.92-59.38Q14.68-56.40 17.93-50.64L17.93-50.64Q21.19-44.79 23.23-41.30Q25.27-37.82 27.04-35.59L27.04-35.59Q29.18-37.35 32.75-44.60Q36.33-51.85 41.07-62.44L41.07-62.44L42.19-65.04Q42.56-65.23 43.02-65.23L43.02-65.23Q44.88-65.23 48.78-63.98Q52.69-62.72 53.61-61.88L53.61-61.88Q51.20-58.73 42.05-43.30Q32.89-27.88 31.96-25.27L31.96-25.27Q31.96-19.70 32.10-14.03Q32.24-8.36 32.34-4.92L32.34-4.92L32.43-1.49Q31.50-1.21 27.32-0.60Q23.14 0 20.54 0L20.54 0L20.63-3.07Q20.81-8.27 20.81-13.75L20.81-13.75Q20.81-23.23 19.98-25.46L19.98-25.46Q17.38-32.89 12.92-40.65Q8.46-48.41-0.37-62.07L-0.37-62.07ZM41.72-52.13L41.72-52.13Q41.63-51.66 41.49-51.11Q41.35-50.55 41.35-50.18L41.35-50.18Q41.35-49.62 41.72-48.88L41.72-48.88Q41.81-49.62 41.95-50.13Q42.09-50.64 42.09-51.01L42.09-51.01Q42.09-51.38 41.72-52.13L41.72-52.13ZM43.21-49.62L43.21-49.62Q43.11-49.53 42.93-49.34Q42.74-49.15 42.84-49.06Q42.93-48.97 43.21-48.88L43.21-48.88Q43.30-49.06 43.49-49.20Q43.67-49.34 43.58-49.43Q43.49-49.53 43.21-49.62L43.21-49.62ZM27.32-17.00L27.32-17.00Q27.32-13.75 27.46-11.52Q27.60-9.29 28.15-7.81L28.15-7.81Q28.15-11.34 28.02-13.57Q27.88-15.80 27.32-17.00L27.32-17.00Z" transform="translate(99.98192 375.67556) " fill="rgb(49, 49, 49)" stroke="rgb(49, 49, 49)" stroke-width="0.155" data-glyph-w="52.964400000000005" data-glyph-h="121.63228000000001" data-glyph-ascender="96.91556" data-glyph-descender="-24.716720000000002"></path><path d="M38.93-31.78L38.93-31.78Q39.58-31.04 39.58-30.01L39.58-30.01Q39.58-29.36 39.35-28.11Q39.12-26.85 39.31-25.74L39.31-25.74Q36.89-24.62 32.34-24.62L32.34-24.62Q29.73-24.62 28.34-24.72L28.34-24.72L23.32-24.81Q17.38-24.81 13.85-25.00L13.85-25.00Q12.92-25.00 11.10-25.04Q9.29-25.09 5.20-25.09L5.20-25.09Q4.92-25.37 4.83-27.27Q4.74-29.18 4.74-29.73L4.74-29.73Q4.74-32.06 4.65-32.24L4.65-32.24Q6.60-31.41 16.35-31.41L16.35-31.41Q22.39-31.41 32.15-31.69L32.15-31.69L38.93-31.78Z" transform="translate(152.94632000000001 375.67556) " fill="rgb(49, 49, 49)" stroke="rgb(49, 49, 49)" stroke-width="0.155" data-glyph-w="42.371520000000004" data-glyph-h="121.63228000000001" data-glyph-ascender="96.91556" data-glyph-descender="-24.716720000000002"></path><path d="M21.37-11.80L21.37-11.80Q20.81-11.71 32.10-11.99Q43.39-12.27 47.85-12.36L47.85-12.36L51.48-12.45Q52.41-10.69 53.52-7.11Q54.64-3.53 54.82-1.58L54.82-1.58Q54.64-1.77 47.53-2.00Q40.42-2.23 31.59-2.23L31.59-2.23Q27.41-2.23 18.31-2.04L18.31-2.04Q16.73-2.04 13.38-1.49L13.38-1.49Q9.94-0.84 7.53-0.84L7.53-0.84Q7.43-1.12 6.60-2.79L6.60-2.79Q6.41-3.35 5.58-5.11Q4.74-6.88 4.37-8.27L4.37-8.27Q7.43-10.87 19.28-27.74Q31.13-44.60 35.59-52.13L35.59-52.13Q32.89-51.94 21.70-51.62Q10.50-51.29 7.81-51.20L7.81-51.20Q7.25-53.24 3.44-60.77L3.44-60.77Q6.13-60.40 15.42-60.40L15.42-60.40Q26.11-60.40 35.87-61.00Q45.62-61.61 46.37-62.54L46.37-62.54Q48.13-61.79 49.99-58.86Q51.85-55.94 51.57-53.43L51.57-53.43Q47.11-48.69 37.63-34.38L37.63-34.38Q31.50-25.37 28.29-20.81Q25.09-16.26 21.37-11.80L21.37-11.80ZM9.38-57.61L9.38-57.61Q10.96-57.61 11.34-57.89L11.34-57.89L10.69-57.98Q10.13-57.98 9.38-57.61L9.38-57.61ZM42.65-51.29L42.65-51.29Q41.16-48.69 40.47-47.30Q39.77-45.90 39.68-44.60L39.68-44.60Q40.33-45.62 41.21-47.48Q42.09-49.34 42.60-50.69Q43.11-52.04 42.65-51.29L42.65-51.29ZM18.86-7.34L18.86-7.34Q19.05-8.46 19.05-9.11L19.05-9.11L18.86-9.38L17.93-9.38Q17.75-8.64 17.75-8.08L17.75-8.08Q17.75-8.08 17.93-7.62L17.93-7.62L18.86-7.34ZM43.02-5.39L43.02-5.39Q44.23-5.30 46.18-5.39Q48.13-5.48 48.36-5.67Q48.60-5.85 45.81-5.85L45.81-5.85Q43.67-5.85 43.02-5.39L43.02-5.39Z" transform="translate(195.31784000000002 375.67556) " fill="rgb(49, 49, 49)" stroke="rgb(49, 49, 49)" stroke-width="0.155" data-glyph-w="55.752" data-glyph-h="121.63228000000001" data-glyph-ascender="96.91556" data-glyph-descender="-24.716720000000002"></path></g></svg></g>
        </g>
  </svg>